<svg id="Layer_1" data-name="Layer 1" xmlns="http://www.w3.org/2000/svg" viewBox="0 0 527.74 505.53">
  <g>
    <circle cx="261.44" cy="249.12" r="229.4" fill="#fff"/>
    <g>
      <path d="M149.29,449.71v-82s-4.6-29.87,32.17-37.53l52.08-13V301.11s-36.76-11.49-30.64-82.72c0,0,9.27-63.58,57.87-60.51" fill="none" stroke="#000" stroke-miterlimit="10" stroke-width="8"/>
      <path d="M372.26,449.71v-82s4.59-29.87-32.17-37.53L288,317.2V301.11s36.77-11.49,30.64-82.72c0,0-9.27-63.58-57.87-60.51" fill="none" stroke="#000" stroke-miterlimit="10" stroke-width="8"/>
    </g>
    <path d="M184.24,330.13v0Z" fill="none" stroke="#000" stroke-miterlimit="10" stroke-width="8"/>
    <path d="M339.73,331v0Z" fill="none" stroke="#000" stroke-miterlimit="10" stroke-width="8"/>
    <polyline points="213.53 322.36 213.53 365.25 261.44 408.91 261.44 434.95" fill="none" stroke="#000" stroke-miterlimit="10" stroke-width="8"/>
    <polyline points="309.35 322.36 309.35 365.25 261.44 408.91 261.44 434.95" fill="none" stroke="#000" stroke-miterlimit="10" stroke-width="8"/>
    <polygon points="235.11 325.53 286.43 356.94 286.43 325.53 235.11 356.94 235.11 325.53" fill="none" stroke="#000" stroke-miterlimit="10" stroke-width="8"/>
    <path d="M205.24,208.34H252s21.45-73.53,36,0H316.3" fill="none" stroke="#000" stroke-miterlimit="10" stroke-width="8"/>
  </g>
</svg>
